<svg xmlns="http://www.w3.org/2000/svg" width="24" height="24" viewBox="0 0 24 24"><path fill="currentColor" d="M12 2A10 10 0 0 0 2 12c0 4.42 2.87 8.17 6.84 9.5c.5.09.68-.22.68-.48v-1.7c-2.78.6-3.37-1.34-3.37-1.34c-.46-1.16-1.11-1.47-1.11-1.47c-.91-.62.07-.6.07-.6c1 .07 1.53 1.03 1.53 1.03c.89 1.53 2.34 1.09 2.91.83c.09-.65.35-1.09.63-1.34c-2.22-.25-4.55-1.11-4.55-4.95c0-1.1.39-1.99 1.03-2.69c-.1-.25-.45-1.27.1-2.65c0 0 .84-.27 2.75 1.02A9.56 9.56 0 0 1 12 6.8c.85 0 1.7.11 2.5.33c1.91-1.29 2.75-1.02 2.75-1.02c.55 1.38.2 2.4.1 2.65c.64.7 1.03 1.59 1.03 2.69c0 3.85-2.34 4.7-4.57 4.94c.36.31.68.92.68 1.85v2.73c0 .27.18.58.69.48A10 10 0 0 0 22 12A10 10 0 0 0 12 2Z"/></svg>